<!-- icon666.com - MILLIONS vector ICONS FREE --><svg viewBox="0 0 96 96" xmlns="http://www.w3.org/2000/svg"><g id="Strong_Muscle" data-name="Strong Muscle"><path d="m88.8 77c-25.94 9.2-24.81 8.8-25.47 9-22.92 6.33-48.82-5-59.59-25a24.6 24.6 0 1 1 46.51-12 19.65 19.65 0 0 1 20.57 2.65c1-13.75.6-8.45 1.62-23.09.22-3.15.22-3.3.24-3.41h-7.32a4.19 4.19 0 0 1 -4.13-4.94l.56-3.15a10.64 10.64 0 0 1 10.46-8.73h6.53a7.16 7.16 0 0 1 7.06 5.95c4.23 24.79 5.28 30.78 9 52.42a9.24 9.24 0 0 1 -6.04 10.3z" fill="#fdcaa5"></path><path d="m86 75.74a3.13 3.13 0 0 0 -4.18-2.95c-10.9 3.87-12.71 4.45-18 5-26.1 2.83-48.1-15-53.13-29.44a24.48 24.48 0 0 1 1.06-18.87 24.66 24.66 0 0 0 -10.68 19c-.85 18.15 19.52 33.91 37.67 37.94a52.15 52.15 0 0 0 16.85 1c6.53-.69 7.37-1.27 28.34-8.69a3.15 3.15 0 0 0 2.07-2.99z" fill="#fdb691"></path><path d="m65.52 48.57-.07 1a18.63 18.63 0 0 0 -21.38 5.43c-1.79-19.46-25.29-29.18-40.44-16.16a24.59 24.59 0 0 1 46.62 10.16 19.69 19.69 0 0 1 15.27-.43z" fill="#fdb691"></path><path d="m30.57 42.74a22.15 22.15 0 0 0 -11.48 5.94 3.24 3.24 0 0 0 -.43 4.15c.3.44.62.88.95 1.31a3.25 3.25 0 0 0 4.26.78 95.83 95.83 0 0 0 9.36-6.25 3.36 3.36 0 0 0 -2.66-5.93z" fill="#fdedc8"></path><path d="m77.27 29.31c-1.08 20.2-1.22 23.08-1.56 29.33l-.62-.11a18.83 18.83 0 0 0 -4.3-5.59c0-1.78-.24 2.43 2-29.75l3.12 2.81a4.15 4.15 0 0 1 1.36 3.31z" fill="#fdb691"></path><path d="m28.64 73.81a1 1 0 0 1 -.81 1.19 25.65 25.65 0 0 1 -14.24-1.55 50.26 50.26 0 0 1 -4.24-4.45c-2.51-2.87 3.32 4.35 14 4.35a23.75 23.75 0 0 0 4.14-.35 1 1 0 0 1 1.15.81z" fill="#fda77d"></path><path d="m79.07 66.89a1 1 0 0 1 -2 0 18.64 18.64 0 0 0 -35.43-8.11 1 1 0 0 1 -1.34.46 1 1 0 0 1 -.46-1.33 20.65 20.65 0 0 1 39.23 9z" fill="#fda77d"></path><path d="m65 55.2a1 1 0 0 1 -.54-.17 10.35 10.35 0 0 0 -9.3-1 1 1 0 0 1 -1.3-.56 1 1 0 0 1 .56-1.3 12.33 12.33 0 0 1 11.13 1.14 1 1 0 0 1 -.55 1.89z" fill="#fdedc8"></path><path d="m49.48 43.62c-7.08-7.23-19.33-8.35-29.29-2.12s-14.4 17.94-10.84 27.5a47.87 47.87 0 0 1 -5.61-8.07 24.6 24.6 0 1 1 45.74-17.31z" fill="#ff3d54"></path><path d="m81.63 19.91a1 1 0 0 1 -1-.83l-.74-4.32a1.49 1.49 0 0 0 -1.48-1.24h-3.9a1 1 0 0 1 0-2h3.92a3.47 3.47 0 0 1 3.45 2.91l.74 4.31a1 1 0 0 1 -.99 1.17z" fill="#fda77d"></path><path d="m73.08 19.31-.4 5.85h-2c0-.11 0-.54.42-6a1 1 0 1 1 2 .14z" fill="#fda77d"></path><path d="m55.85 73.49c-12 0-22.92-4.86-30.1-13.34a1 1 0 0 1 1.53-1.3c6.8 8 17.21 12.64 28.57 12.64a1 1 0 1 1 0 2z" fill="#fda77d"></path><path d="m75.76 58.64a1 1 0 0 1 -1-1l.63-12.34a1 1 0 1 1 2 .1l-.62 12.34a1 1 0 0 1 -1.01.9z" fill="#fda77d"></path><path d="m90.37 40.74h-18.78l.85-12.17h15.84c.43 2.48 1.07 6.24 2.09 12.17z" fill="#f4b242"></path><path d="m76.66 40.74h-5.07c.81-11.54.63-9.09.85-12.17h4.81c.06.43.07-.14-.59 12.17z" fill="#f48a42"></path><path d="m82.84 34.2h-4.41a1 1 0 0 1 0-2h4.41a1 1 0 0 1 0 2z" fill="#fff"></path><path d="m73.41 80.45c-.1.08-4.31 3.63-4.42 3.52l-4.68 1.66a51 51 0 0 1 -8.67 1.72 29.89 29.89 0 0 0 14.24-6.55l2.31-1.92a1 1 0 1 1 1.27 1.54z" fill="#fda77d"></path><path d="m34.16 31.44a32.73 32.73 0 0 0 -25.53 12.47 19.78 19.78 0 0 0 .72 25.09c-3.56-9.57.78-21.22 10.84-27.51s22.21-5.11 29.29 2.12a15.64 15.64 0 0 0 -15.32-12.17z" fill="#50538f"></path><path d="m25.44 32.66a32.24 32.24 0 0 0 -10.27 5 2.34 2.34 0 0 0 -.83 2.74c.16.43.33.87.5 1.3a2.32 2.32 0 0 0 3.55 1 26.84 26.84 0 0 1 9.15-4.42 2.31 2.31 0 0 0 1.3-3.59l-.72-1a2.43 2.43 0 0 0 -2.68-1.03z" fill="#6e76cb"></path><path d="m11.51 50.27a21.71 21.71 0 0 0 -2.16 18.73 45.91 45.91 0 0 1 -3.9-5.21 24.57 24.57 0 0 1 6.81-34.64 24.46 24.46 0 0 0 -.75 21.12z" fill="#d71f54"></path><path d="m11.51 50.27a24.63 24.63 0 0 1 -1.92-7.52 19.81 19.81 0 0 0 -.24 26.25 21.71 21.71 0 0 1 2.16-18.73z" fill="#463f7b"></path><path d="m54.35 42.64a1 1 0 0 1 -1-.83l-.45-2.81a1 1 0 1 1 2-.32l.47 2.84a1 1 0 0 1 -1.02 1.12z" fill="#e1ebff"></path><path d="m60.74 42.11a1 1 0 0 1 -1-1.1l.38-3.73a1 1 0 0 1 1.09-.9 1 1 0 0 1 .9 1.1l-.38 3.73a1 1 0 0 1 -.99.9z" fill="#e1ebff"></path><path d="m66.38 44.17a1 1 0 0 1 -.84-1.54l1.57-2.43a1 1 0 1 1 1.68 1.08l-1.56 2.43a1 1 0 0 1 -.85.46z" fill="#e1ebff"></path><path d="m87.15 58.5h-3a1.75 1.75 0 0 1 -1.75-1.75v-8.84a2.66 2.66 0 0 1 5.29-.34l1.14 9a1.75 1.75 0 0 1 -1.68 1.93z" fill="#fdedc8"></path><g fill="#302d3d"><path d="m65.51 53.36a12.33 12.33 0 0 0 -11.13-1.14 1 1 0 0 0 -.56 1.3 1 1 0 0 0 1.29.56 10.37 10.37 0 0 1 9.31 1 1 1 0 1 0 1.09-1.67z"></path><path d="m95.79 66.53c-3.48-20.46-4.43-25.87-9-52.42a8.13 8.13 0 0 0 -8-6.78h-6.54a11.63 11.63 0 0 0 -11.45 9.56l-.56 3.11a5.2 5.2 0 0 0 5.12 6.12h6.24c-1.21 17.26-.44 6.39-1.65 23.6a20.77 20.77 0 0 0 -18.78-2.22 25.6 25.6 0 1 0 -50.55 7.58 24.72 24.72 0 0 0 3.81 9 52.7 52.7 0 0 0 4.16 5.59c12.49 14.76 34.73 22.83 55 17.22a19.37 19.37 0 0 0 2.48-.8l23.1-8.18a10.22 10.22 0 0 0 6.62-11.38zm-6.61-26.79h-16.52c0-.41.67-9.66.71-10.17h14.06c.22 1.24.25 1.43 1.75 10.17zm-23.82-15.58a3.19 3.19 0 0 1 -3.15-3.77l.56-3.14a9.64 9.64 0 0 1 9.48-7.92h6.53a6.14 6.14 0 0 1 6.07 5.12l2.24 13.12h-13.58c0-.27-.09 1.22.58-8.26a1 1 0 0 0 -2-.14l-.35 5zm-61.77 34a23.59 23.59 0 0 1 37.54-26.16 17 17 0 0 0 -7.07-1.51 33.76 33.76 0 0 0 -26.22 12.8 20.58 20.58 0 0 0 -4.25 14.82zm3.59 5.7a18.72 18.72 0 0 1 2.23-19.34 31.75 31.75 0 0 1 24.75-12.08 14.6 14.6 0 0 1 13.13 8c-7.64-5.34-18.67-5.42-27.63.19-8.49 5.37-13.19 14.44-12.48 23.18zm81.28 12.14-19.57 6.94c1.59-1.11 2.3-1.74 4.52-3.59a1 1 0 0 0 .13-1.41 1 1 0 0 0 -1.41-.13l-2.31 1.92c-7.56 6.27-15.75 7.69-25.44 6.6a53.86 53.86 0 0 1 -30.06-13.63 25.57 25.57 0 0 0 15.81 2.3 1 1 0 0 0 .81-1.16 1 1 0 0 0 -1.16-.84 23.59 23.59 0 0 1 -19.93-5.72c-2.57-9 1.83-19.28 10.87-24.94 9.3-5.81 21-5 27.85 1.8a20.64 20.64 0 0 1 .64 4.31 20.76 20.76 0 0 0 -9.38 9.46 1 1 0 0 0 1.8.87 18.65 18.65 0 0 1 35.44 8.11 1 1 0 0 0 2 0 20.5 20.5 0 0 0 -2.3-9.43l.61-12.11a1 1 0 0 0 -2-.1l-.46 9.27a21.27 21.27 0 0 0 -3.07-3.29l.67-9.49h17c1.48 8.61 2.82 16.45 4.3 25.12a8.22 8.22 0 0 1 -5.36 9.14z"></path><path d="m74.51 13.52h3.92a1.49 1.49 0 0 1 1.48 1.24l.74 4.32a1 1 0 0 0 1 .83 1 1 0 0 0 1-1.17l-.74-4.31a3.49 3.49 0 0 0 -3.45-2.91h-3.95a1 1 0 0 0 0 2z"></path><path d="m55.85 71.49c-11.36 0-21.78-4.6-28.57-12.64a1 1 0 0 0 -1.53 1.3c7.18 8.48 18.15 13.34 30.1 13.34a1 1 0 1 0 0-2z"></path><path d="m78.42 34.2h4.42a1 1 0 0 0 0-2h-4.42a1 1 0 0 0 0 2z"></path><path d="m54.35 42.64a1 1 0 0 0 1-1.16l-.47-2.84a1 1 0 1 0 -2 .32l.46 2.85a1 1 0 0 0 1.01.83z"></path><path d="m60.64 42.11a1 1 0 0 0 1.09-.9l.38-3.73a1 1 0 0 0 -.9-1.1 1 1 0 0 0 -1.09.9l-.38 3.72a1 1 0 0 0 .9 1.11z"></path><path d="m66.38 44.17a1 1 0 0 0 .84-.46l1.57-2.43a1 1 0 0 0 -1.69-1.08l-1.56 2.43a1 1 0 0 0 .84 1.54z"></path></g></g></svg>